<svg width="484" height="96" viewBox="0 0 484 96" fill="none" xmlns="http://www.w3.org/2000/svg">
<path d="M45.056 76.16V94.72H33.92C25.984 94.72 19.7973 92.8 15.36 88.96C10.9227 85.0347 8.704 78.6773 8.704 69.888V41.472H0V23.296H8.704V5.888H30.592V23.296H44.928V41.472H30.592V70.144C30.592 72.2773 31.104 73.8133 32.128 74.752C33.152 75.6907 34.8587 76.16 37.248 76.16H45.056Z" fill="#C4605C"/>
<path d="M52.896 58.88C52.896 51.5413 54.2613 45.0987 56.992 39.552C59.808 34.0053 63.6053 29.7387 68.384 26.752C73.1627 23.7653 78.496 22.272 84.384 22.272C89.4187 22.272 93.8133 23.296 97.568 25.344C101.408 27.392 104.352 30.08 106.4 33.408V23.296H128.288V94.72H106.4V84.608C104.267 87.936 101.28 90.624 97.44 92.672C93.6853 94.72 89.2907 95.744 84.256 95.744C78.4533 95.744 73.1627 94.2507 68.384 91.264C63.6053 88.192 59.808 83.8827 56.992 78.336C54.2613 72.704 52.896 66.2187 52.896 58.88ZM106.4 59.008C106.4 53.5467 104.864 49.2373 101.792 46.08C98.8053 42.9227 95.136 41.344 90.784 41.344C86.432 41.344 82.72 42.9227 79.648 46.08C76.6613 49.152 75.168 53.4187 75.168 58.88C75.168 64.3413 76.6613 68.6933 79.648 71.936C82.72 75.0933 86.432 76.672 90.784 76.672C95.136 76.672 98.8053 75.0933 101.792 71.936C104.864 68.7787 106.4 64.4693 106.4 59.008Z" fill="#C4605C"/>
<path d="M187.771 94.72L166.011 64.768V94.72H144.123V0H166.011V52.352L187.643 23.296H214.651L184.955 59.136L214.907 94.72H187.771Z" fill="#C4605C"/>
<path d="M255.76 95.744C248.763 95.744 242.448 94.2507 236.816 91.264C231.269 88.2773 226.875 84.0107 223.632 78.464C220.475 72.9173 218.896 66.432 218.896 59.008C218.896 51.6693 220.517 45.2267 223.76 39.68C227.003 34.048 231.44 29.7387 237.072 26.752C242.704 23.7653 249.019 22.272 256.016 22.272C263.013 22.272 269.328 23.7653 274.96 26.752C280.592 29.7387 285.029 34.048 288.272 39.68C291.515 45.2267 293.136 51.6693 293.136 59.008C293.136 66.3467 291.472 72.832 288.144 78.464C284.901 84.0107 280.421 88.2773 274.704 91.264C269.072 94.2507 262.757 95.744 255.76 95.744ZM255.76 76.8C259.941 76.8 263.483 75.264 266.384 72.192C269.371 69.12 270.864 64.7253 270.864 59.008C270.864 53.2907 269.413 48.896 266.512 45.824C263.696 42.752 260.197 41.216 256.016 41.216C251.749 41.216 248.208 42.752 245.392 45.824C242.576 48.8107 241.168 53.2053 241.168 59.008C241.168 64.7253 242.533 69.12 245.264 72.192C248.08 75.264 251.579 76.8 255.76 76.8Z" fill="#C4605C"/>
<path d="M314.988 95.744C311.148 95.744 307.991 94.6347 305.516 92.416C303.127 90.112 301.932 87.296 301.932 83.968C301.932 80.5547 303.127 77.696 305.516 75.392C307.991 73.088 311.148 71.936 314.988 71.936C318.743 71.936 321.815 73.088 324.204 75.392C326.679 77.696 327.916 80.5547 327.916 83.968C327.916 87.296 326.679 90.112 324.204 92.416C321.815 94.6347 318.743 95.744 314.988 95.744Z" fill="#9BC4B6"/>
<path d="M369.929 95.744C363.7 95.744 358.153 94.6773 353.289 92.544C348.425 90.4107 344.585 87.5093 341.769 83.84C338.953 80.0853 337.374 75.904 337.033 71.296H358.665C358.921 73.7707 360.073 75.776 362.121 77.312C364.169 78.848 366.686 79.616 369.673 79.616C372.404 79.616 374.494 79.104 375.945 78.08C377.481 76.9707 378.249 75.5627 378.249 73.856C378.249 71.808 377.182 70.3147 375.049 69.376C372.916 68.352 369.46 67.2427 364.681 66.048C359.561 64.8533 355.294 63.616 351.881 62.336C348.468 60.9707 345.524 58.88 343.049 56.064C340.574 53.1627 339.337 49.28 339.337 44.416C339.337 40.32 340.446 36.608 342.665 33.28C344.969 29.8667 348.297 27.1787 352.649 25.216C357.086 23.2533 362.334 22.272 368.393 22.272C377.353 22.272 384.393 24.4907 389.513 28.928C394.718 33.3653 397.705 39.2533 398.473 46.592H378.249C377.908 44.1173 376.798 42.1547 374.921 40.704C373.129 39.2533 370.74 38.528 367.753 38.528C365.193 38.528 363.23 39.04 361.865 40.064C360.5 41.0027 359.817 42.3253 359.817 44.032C359.817 46.08 360.884 47.616 363.017 48.64C365.236 49.664 368.649 50.688 373.257 51.712C378.548 53.0773 382.857 54.4427 386.185 55.808C389.513 57.088 392.414 59.2213 394.889 62.208C397.449 65.1093 398.772 69.0347 398.857 73.984C398.857 78.1653 397.662 81.92 395.273 85.248C392.969 88.4907 389.598 91.0507 385.161 92.928C380.809 94.8053 375.732 95.744 369.929 95.744Z" fill="#9BC4B6"/>
<path d="M456.152 22.528C464.344 22.528 470.915 25.2587 475.864 30.72C480.813 36.096 483.288 43.52 483.288 52.992V94.72H461.528V55.936C461.528 51.1573 460.291 47.4453 457.816 44.8C455.341 42.1547 452.013 40.832 447.832 40.832C443.651 40.832 440.323 42.1547 437.848 44.8C435.373 47.4453 434.136 51.1573 434.136 55.936V94.72H412.248V0H434.136V32.896C436.355 29.7387 439.384 27.2213 443.224 25.344C447.064 23.4667 451.373 22.528 456.152 22.528Z" fill="#9BC4B6"/>
</svg>
